<svg width="43" height="43" viewBox="0 0 43 43" fill="none" xmlns="http://www.w3.org/2000/svg">
<g clip-path="url(#clip0)">
<rect width="42.82" height="42.82" rx="3" fill="#3C5A9A"/>
<path d="M40.4654 0H2.35513C1.73051 0 1.13148 0.248129 0.689802 0.689799C0.248129 1.13147 0 1.73051 0 2.35513V40.4654C0 40.7747 0.060918 41.0809 0.179274 41.3666C0.29763 41.6524 0.471108 41.912 0.689802 42.1307C0.908496 42.3494 1.16813 42.5229 1.45386 42.6412C1.7396 42.7596 2.04585 42.8205 2.35513 42.8205H22.8662V26.2276H17.2995V19.8045H22.8662V14.9872C22.7508 13.8562 22.8844 12.7137 23.2574 11.6398C23.6303 10.5658 24.2338 9.58651 25.0253 8.77052C25.8168 7.9545 26.7773 7.32154 27.8394 6.91602C28.9014 6.51051 30.0394 6.34226 31.1733 6.42308C32.8398 6.41282 34.5054 6.49861 36.1619 6.68V12.4608H32.7577C30.06 12.4608 29.5462 13.7454 29.5462 15.6081V19.7402H35.9692L35.1342 26.1633H29.5462V42.8205H40.4654C40.7747 42.8205 41.0809 42.7596 41.3667 42.6412C41.6524 42.5229 41.912 42.3494 42.1307 42.1307C42.3494 41.912 42.5229 41.6524 42.6412 41.3666C42.7596 41.0809 42.8205 40.7747 42.8205 40.4654V2.35513C42.8205 2.04585 42.7596 1.7396 42.6412 1.45386C42.5229 1.16812 42.3494 0.908499 42.1307 0.689799C41.912 0.471107 41.6524 0.29763 41.3667 0.179273C41.0809 0.060917 40.7747 0 40.4654 0Z" fill="white"/>
</g>
<defs>
<clipPath id="clip0">
<rect width="42.82" height="42.82" rx="3" fill="white"/>
</clipPath>
</defs>
</svg>
