<?xml version="1.0" encoding="UTF-8"?>
<svg xmlns="http://www.w3.org/2000/svg" xmlns:xlink="http://www.w3.org/1999/xlink" viewBox="0 0 48 48" width="48px" height="48px">
<g id="surface163279932">
<path style=" stroke:none;fill-rule:nonzero;fill:rgb(100%,100%,100%);fill-opacity:1;" d="M 3.601562 48 C 1.613281 48 0 46.386719 0 44.398438 L 0 3.601562 C 0 1.613281 1.613281 0 3.601562 0 L 44.398438 0 C 46.386719 0 48 1.613281 48 3.601562 L 48 44.398438 C 48 46.386719 46.386719 48 44.398438 48 Z M 3.601562 48 "/>
<path style=" stroke:none;fill-rule:nonzero;fill:rgb(100%,75.686276%,2.745098%);fill-opacity:1;" d="M 40.867188 20.632812 L 39.480469 20.632812 L 39.480469 20.558594 L 24 20.558594 L 24 27.441406 L 33.71875 27.441406 C 32.300781 31.445312 28.492188 34.320312 24 34.320312 C 18.300781 34.320312 13.679688 29.699219 13.679688 24 C 13.679688 18.300781 18.300781 13.679688 24 13.679688 C 26.628906 13.679688 29.023438 14.671875 30.847656 16.292969 L 35.710938 11.429688 C 32.640625 8.566406 28.53125 6.800781 24 6.800781 C 14.5 6.800781 6.800781 14.5 6.800781 24 C 6.800781 33.5 14.5 41.199219 24 41.199219 C 33.5 41.199219 41.199219 33.5 41.199219 24 C 41.199219 22.847656 41.082031 21.722656 40.867188 20.632812 Z M 40.867188 20.632812 "/>
<path style=" stroke:none;fill-rule:nonzero;fill:rgb(100%,23.921569%,0%);fill-opacity:1;" d="M 8.78125 15.996094 L 14.433594 20.136719 C 15.964844 16.351562 19.667969 13.679688 24 13.679688 C 26.628906 13.679688 29.023438 14.671875 30.847656 16.292969 L 35.710938 11.429688 C 32.640625 8.566406 28.53125 6.800781 24 6.800781 C 17.394531 6.800781 11.664062 10.53125 8.78125 15.996094 Z M 8.78125 15.996094 "/>
<path style=" stroke:none;fill-rule:nonzero;fill:rgb(29.803923%,68.627453%,31.37255%);fill-opacity:1;" d="M 24 41.199219 C 28.441406 41.199219 32.480469 39.5 35.53125 36.734375 L 30.207031 32.230469 C 28.480469 33.539062 26.335938 34.320312 24 34.320312 C 19.527344 34.320312 15.726562 31.46875 14.296875 27.488281 L 8.6875 31.808594 C 11.535156 37.378906 17.316406 41.199219 24 41.199219 Z M 24 41.199219 "/>
<path style=" stroke:none;fill-rule:nonzero;fill:rgb(9.803922%,46.27451%,82.352942%);fill-opacity:1;" d="M 40.867188 20.632812 L 39.480469 20.632812 L 39.480469 20.558594 L 24 20.558594 L 24 27.441406 L 33.71875 27.441406 C 33.039062 29.363281 31.800781 31.023438 30.207031 32.230469 L 35.53125 36.734375 C 35.15625 37.078125 41.199219 32.601562 41.199219 24 C 41.199219 22.847656 41.082031 21.722656 40.867188 20.632812 Z M 40.867188 20.632812 "/>
</g>
</svg>
