<svg width="52" height="54" viewBox="0 0 52 54" fill="none" xmlns="http://www.w3.org/2000/svg">
<g filter="url(#filter0_d)">
<path d="M42 22.0002C42 33.0463 33.0459 42 21.9998 42C10.9541 42 2 33.0463 2 22.0002C2 10.954 10.9541 2 21.9998 2C33.0459 2 42 10.954 42 22.0002Z" fill="#43B06D"/>
<path d="M33.25 36.9062H12.1562V18.5469C12.1562 12.722 16.8782 8 22.7031 8C28.528 8 33.25 12.722 33.25 18.5469V36.9062Z" fill="#3D2A3D"/>
<path d="M17.318 22.0695C17.8306 23.2833 17.5514 24.4631 16.6946 24.7046C15.8377 24.9461 14.7279 24.1579 14.2154 22.9443C13.7028 21.7304 13.982 20.5506 14.8388 20.309C15.6955 20.0675 16.8056 20.8558 17.318 22.0695Z" fill="#E38A5B"/>
<path d="M27.7512 22.0695C27.2387 23.2833 27.5179 24.4631 28.3747 24.7046C29.2315 24.9461 30.3415 24.1579 30.8538 22.9443C31.3665 21.7304 31.0874 20.5506 30.2304 20.309C29.3738 20.0675 28.2637 20.8558 27.7512 22.0695Z" fill="#E38A5B"/>
<path d="M22.5344 24.4816C27.4963 24.4816 31.5188 20.7994 31.5188 16.2572C31.5188 11.715 27.4963 8.03287 22.5344 8.03287C17.5725 8.03287 13.55 11.715 13.55 16.2572C13.55 20.7994 17.5725 24.4816 22.5344 24.4816Z" fill="#3D2A3D"/>
<path d="M37.0347 43.9375L37.0306 43.8717C37.0306 39.8713 35.5331 35.9955 33.7047 35.2574L25.9172 32.12C24.0886 31.3826 21.094 31.3796 19.265 32.1113L11.3661 35.2673C9.53599 35.9999 8.03849 39.8714 8.03849 43.8718L8.03442 43.9376H37.0347V43.9375Z" fill="#E38A5B"/>
<path d="M25.8324 32.3125C25.8324 34.0298 24.4404 35.4219 22.7231 35.4219H22.3461C20.6289 35.4219 19.2368 34.0299 19.2368 32.3125V24.3036C19.2368 22.5864 20.6288 21.1942 22.3461 21.1942H22.7231C24.4403 21.1942 25.8324 22.5864 25.8324 24.3036V32.3125Z" fill="#E38A5B"/>
<path d="M29.4457 22.6014C29.4457 26.2971 26.4498 29.293 22.7541 29.293H22.7537C19.0581 29.293 16.0623 26.2972 16.0623 22.6016V17.0353C16.0623 13.3397 19.0582 10.3438 22.7538 10.3438C26.4496 10.3438 29.4456 13.3398 29.4456 17.0355V22.6014H29.4457Z" fill="#F5B68C"/>
<path d="M19.9691 23.5835C20.3964 23.5835 20.7428 23.2371 20.7428 22.8098C20.7428 22.3824 20.3964 22.036 19.9691 22.036C19.5417 22.036 19.1953 22.3824 19.1953 22.8098C19.1953 23.2371 19.5417 23.5835 19.9691 23.5835Z" fill="#572020"/>
<path d="M25.1007 23.5835C25.528 23.5835 25.8744 23.2371 25.8744 22.8098C25.8744 22.3824 25.528 22.036 25.1007 22.036C24.6733 22.036 24.3269 22.3824 24.3269 22.8098C24.3269 23.2371 24.6733 23.5835 25.1007 23.5835Z" fill="#572020"/>
<path d="M22.5347 9.26498C18.1962 9.26498 14.6792 13.0769 14.6792 17.7794C14.6792 19.341 15.0674 20.8041 15.7444 22.0625L16.1379 18.7255C16.3586 16.8538 17.9449 15.4434 19.8296 15.4433L25.2388 15.4431C27.1233 15.443 28.7097 16.853 28.9308 18.7245L29.3251 22.0624C30.0019 20.8041 30.3901 19.3411 30.3901 17.7794C30.39 13.0769 26.873 9.26498 22.5347 9.26498Z" fill="#3D2A3D"/>
<path d="M23.6419 23.1295C23.6068 23.7463 23.0913 24.2355 22.4542 24.2355C21.9145 24.2355 21.4638 23.8824 21.3155 23.3986C21.2824 23.512 21.2583 23.6301 21.2583 23.7538C21.2583 24.4591 21.8307 25.0313 22.5348 25.0313C23.2406 25.0313 23.8109 24.4591 23.8109 23.7538C23.8109 23.5252 23.747 23.3148 23.6419 23.1295Z" fill="#E38A5B"/>
<path d="M37.0306 43.8717C37.0306 39.8713 35.5331 35.9955 33.7047 35.2573L27.5129 32.7628C26.652 34.6535 24.7475 35.9687 22.5346 35.9687C20.3319 35.9687 18.4347 34.6657 17.5682 32.7891L11.3661 35.2672C9.53599 35.9998 8.03849 39.8713 8.03849 43.8717L8.03442 43.9375H37.0347L37.0306 43.8717Z" fill="#FFC34A"/>
<path d="M24.0307 26.1523C23.1578 26.9742 21.6603 26.9742 20.7871 26.1523C20.1716 25.5728 19.2418 26.4992 19.8591 27.0805C21.2606 28.3998 23.5574 28.3998 24.9587 27.0805C25.5763 26.4992 24.6464 25.5728 24.0307 26.1523Z" fill="white"/>
<path d="M20.6835 24.5848H17.1964C16.4585 24.5848 15.8582 23.9845 15.8582 23.2466V21.7387C15.8582 21.0008 16.4585 20.4005 17.1964 20.4005H20.6835C21.4214 20.4005 22.0217 21.0008 22.0217 21.7387V23.2466C22.0217 23.9845 21.4214 24.5848 20.6835 24.5848ZM17.1964 21.0035C16.791 21.0035 16.4611 21.3333 16.4611 21.7387V23.2467C16.4611 23.6521 16.791 23.9819 17.1964 23.9819H20.6835C21.0889 23.9819 21.4188 23.6521 21.4188 23.2467V21.7387C21.4188 21.3333 21.0889 21.0035 20.6835 21.0035H17.1964Z" fill="#3D2A3D"/>
<path d="M28.1291 24.5848H24.6419C23.904 24.5848 23.3037 23.9845 23.3037 23.2466V21.7387C23.3037 21.0008 23.904 20.4005 24.6419 20.4005H28.1291C28.867 20.4005 29.4673 21.0008 29.4673 21.7387V23.2466C29.4672 23.9845 28.867 24.5848 28.1291 24.5848ZM24.6419 21.0035C24.2365 21.0035 23.9067 21.3333 23.9067 21.7387V23.2467C23.9067 23.6521 24.2365 23.9819 24.6419 23.9819H28.1291C28.5345 23.9819 28.8643 23.6521 28.8643 23.2467V21.7387C28.8643 21.3333 28.5345 21.0035 28.1291 21.0035H24.6419Z" fill="#3D2A3D"/>
<path d="M23.5671 22.2162H21.7583V22.9053H23.5671V22.2162Z" fill="#3D2A3D"/>
</g>
<defs>
<filter id="filter0_d" x="0" y="0" width="52" height="53.9376" filterUnits="userSpaceOnUse" color-interpolation-filters="sRGB">
<feFlood flood-opacity="0" result="BackgroundImageFix"/>
<feColorMatrix in="SourceAlpha" type="matrix" values="0 0 0 0 0 0 0 0 0 0 0 0 0 0 0 0 0 0 127 0" result="hardAlpha"/>
<feOffset dx="4" dy="4"/>
<feGaussianBlur stdDeviation="3"/>
<feComposite in2="hardAlpha" operator="out"/>
<feColorMatrix type="matrix" values="0 0 0 0 0 0 0 0 0 0 0 0 0 0 0 0 0 0 0.25 0"/>
<feBlend mode="normal" in2="BackgroundImageFix" result="effect1_dropShadow"/>
<feBlend mode="normal" in="SourceGraphic" in2="effect1_dropShadow" result="shape"/>
</filter>
</defs>
</svg>
